<svg width="46" height="40" viewBox="0 0 46 40" fill="none" xmlns="http://www.w3.org/2000/svg">
<path d="M8.68212 0C4.11043 0 0.429321 3.2578 0.429321 7.30376V32.6963C0.429321 36.7422 4.11043 40 8.68212 40H24.2329V24.3625H19.5606V18.7325H24.2329V13.9225C24.2329 10.1435 26.9935 6.67376 33.3529 6.67376C35.9277 6.67376 37.8317 6.89252 37.8317 6.89252L37.682 12.15C37.682 12.15 35.7402 12.1338 33.6213 12.1338C31.328 12.1338 30.9603 13.0689 30.9603 14.6213V18.7326H37.8642L37.5633 24.3626H30.9603V40.0001H37.3741C41.9457 40.0001 45.6269 36.7423 45.6269 32.6963V7.3038C45.6269 3.25784 41.9457 4e-05 37.3741 4e-05L8.68212 0Z" fill="white"/>
</svg>
