<svg width="46" height="40" viewBox="0 0 46 40" fill="none" xmlns="http://www.w3.org/2000/svg">
<path fill-rule="evenodd" clip-rule="evenodd" d="M13.8147 0.12C16.2246 0.0218182 16.993 0 23.1316 0C29.2702 0 30.0386 0.0236363 32.4464 0.12C34.8542 0.216364 36.4977 0.556364 37.9358 1.04909C39.4417 1.55273 40.8079 2.34 41.9379 3.35818C43.0884 4.35636 43.9759 5.56364 44.5429 6.89818C45.1017 8.17091 45.4838 9.62546 45.5948 11.7527C45.7057 13.8891 45.7304 14.5691 45.7304 20C45.7304 25.4327 45.7036 26.1127 45.5948 28.2455C45.4859 30.3727 45.1017 31.8273 44.5429 33.1C43.9759 34.4347 43.0869 35.644 41.9379 36.6436C40.8079 37.6618 39.4417 38.4473 37.9358 38.9491C36.4977 39.4436 34.8542 39.7818 32.4505 39.88C30.0386 39.9782 29.2702 40 23.1316 40C16.993 40 16.2246 39.9764 13.8147 39.88C11.4111 39.7836 9.76751 39.4436 8.32941 38.9491C6.82129 38.4472 5.45489 37.6605 4.32532 36.6436C3.17562 35.6449 2.28591 34.4362 1.71824 33.1018C1.16149 31.8291 0.779369 30.3745 0.668429 28.2473C0.55749 26.1109 0.532837 25.4309 0.532837 20C0.532837 14.5673 0.559545 13.8873 0.668429 11.7564C0.777314 9.62545 1.16149 8.17091 1.71824 6.89818C2.28675 5.56378 3.17714 4.35512 4.32737 3.35636C5.45534 2.33909 6.82037 1.55172 8.32735 1.04909C9.76546 0.556364 11.409 0.218182 13.8127 0.12H13.8147ZM32.2635 3.72C29.8804 3.62364 29.1655 3.60364 23.1316 3.60364C17.0977 3.60364 16.3828 3.62364 13.9996 3.72C11.7952 3.80909 10.5996 4.13455 9.80244 4.40909C8.74851 4.77273 7.99454 5.20364 7.20358 5.90364C6.4538 6.54919 5.87679 7.33506 5.51484 8.20364C5.20462 8.90909 4.83687 9.96727 4.73621 11.9182C4.62732 14.0273 4.60472 14.66 4.60472 20C4.60472 25.34 4.62732 25.9727 4.73621 28.0818C4.83687 30.0327 5.20462 31.0909 5.51484 31.7964C5.87642 32.6636 6.45371 33.4509 7.20358 34.0964C7.9329 34.76 8.82247 35.2709 9.80244 35.5909C10.5996 35.8655 11.7952 36.1909 13.9996 36.28C16.3828 36.3764 17.0957 36.3964 23.1316 36.3964C29.1675 36.3964 29.8804 36.3764 32.2635 36.28C34.468 36.1909 35.6636 35.8655 36.4608 35.5909C37.5147 35.2273 38.2687 34.7964 39.0596 34.0964C39.8095 33.4509 40.3868 32.6636 40.7484 31.7964C41.0586 31.0909 41.4263 30.0327 41.527 28.0818C41.6359 25.9727 41.6585 25.34 41.6585 20C41.6585 14.66 41.6359 14.0273 41.527 11.9182C41.4263 9.96727 41.0586 8.90909 40.7484 8.20364C40.3375 7.27091 39.8506 6.60364 39.0596 5.90364C38.3301 5.24013 37.4422 4.72947 36.4608 4.40909C35.6636 4.13455 34.468 3.80909 32.2635 3.72ZM20.2451 26.1655C21.8571 26.7593 23.6521 26.8395 25.3235 26.3922C26.9949 25.945 28.439 24.998 29.4091 23.7132C30.3793 22.4283 30.8153 20.8852 30.6427 19.3475C30.4701 17.8097 29.6996 16.3727 28.4628 15.2818C27.6744 14.5845 26.7211 14.0506 25.6716 13.7184C24.622 13.3863 23.5023 13.2643 22.393 13.3611C21.2838 13.4579 20.2126 13.7712 19.2565 14.2784C18.3005 14.7856 17.4834 15.4741 16.8641 16.2943C16.2449 17.1145 15.8387 18.046 15.6751 19.0217C15.5114 19.9975 15.5942 20.9933 15.9175 21.9373C16.2409 22.8813 16.7967 23.7502 17.545 24.4813C18.2933 25.2124 19.2155 25.7876 20.2451 26.1655ZM14.918 12.7309C15.9966 11.7763 17.2771 11.0191 18.6864 10.5025C20.0957 9.98586 21.6062 9.71995 23.1316 9.71995C24.657 9.71995 26.1675 9.98585 27.5768 10.5025C28.9861 11.0191 30.2666 11.7763 31.3452 12.7309C32.4238 13.6855 33.2795 14.8188 33.8632 16.066C34.447 17.3132 34.7474 18.65 34.7474 20C34.7474 21.35 34.447 22.6868 33.8632 23.934C33.2795 25.1812 32.4238 26.3145 31.3452 27.2691C29.1668 29.197 26.2123 30.28 23.1316 30.28C20.0509 30.28 17.0964 29.197 14.918 27.2691C12.7396 25.3412 11.5158 22.7264 11.5158 20C11.5158 17.2736 12.7396 14.6588 14.918 12.7309ZM37.3236 11.2509C37.5909 11.0278 37.8049 10.7594 37.9529 10.4618C38.1009 10.1641 38.1799 9.84322 38.1853 9.51805C38.1906 9.19289 38.1222 8.87009 37.9841 8.56875C37.8459 8.2674 37.6409 7.99366 37.3811 7.76371C37.1212 7.53376 36.8119 7.35229 36.4714 7.23003C36.1309 7.10778 35.7662 7.04723 35.3988 7.05197C35.0313 7.05671 34.6687 7.12664 34.3324 7.25763C33.9961 7.38862 33.6929 7.57799 33.4407 7.81455C32.9504 8.2746 32.6819 8.88568 32.6923 9.51805C32.7027 10.1504 32.9912 10.7543 33.4965 11.2015C34.0018 11.6487 34.6842 11.9041 35.3988 11.9133C36.1133 11.9225 36.8038 11.6849 37.3236 11.2509Z" fill="white"/>
</svg>
