<svg width="50" height="40" viewBox="0 0 50 40" fill="none" xmlns="http://www.w3.org/2000/svg">
<path d="M25.02 0C38.6011 0 49.6108 7.59422 49.6108 16.9647C49.6108 26.3331 38.6011 33.9273 25.02 33.9273C23.6677 33.9279 22.3168 33.8518 20.9755 33.6993L10.652 39.6748C9.47871 40.224 9.06418 40.1639 9.54663 38.8188L11.6357 31.1956C4.89078 28.1695 0.429321 22.9257 0.429321 16.9647C0.429321 7.59629 11.4389 0 25.02 0ZM38.8541 16.7056L42.2968 13.7541C42.4954 13.5716 42.6063 13.3279 42.6059 13.0744C42.6056 12.8209 42.4941 12.5775 42.2949 12.3953C42.0958 12.2132 41.8245 12.1065 41.5383 12.0979C41.2521 12.0892 40.9732 12.1792 40.7605 12.3489L36.2451 16.2165V13.0204C36.2451 12.761 36.1287 12.5121 35.9214 12.3287C35.7141 12.1452 35.4329 12.0421 35.1397 12.0421C34.8465 12.0421 34.5654 12.1452 34.3581 12.3287C34.1508 12.5121 34.0343 12.761 34.0343 13.0204V18.3202C33.9929 18.4714 33.9929 18.6292 34.0343 18.7803V21.7629C34.0343 22.0224 34.1508 22.2712 34.3581 22.4547C34.5654 22.6381 34.8465 22.7412 35.1397 22.7412C35.4329 22.7412 35.7141 22.6381 35.9214 22.4547C36.1287 22.2712 36.2451 22.0224 36.2451 21.7629V18.9379L37.2451 18.0819L40.5895 22.2956C40.673 22.4008 40.7791 22.4904 40.9017 22.5593C41.0243 22.6282 41.1611 22.6751 41.3042 22.6972C41.4473 22.7193 41.5939 22.7163 41.7357 22.6883C41.8775 22.6603 42.0116 22.6078 42.1305 22.5339C42.2494 22.46 42.3506 22.3661 42.4285 22.2576C42.5064 22.1491 42.5593 22.028 42.5843 21.9014C42.6093 21.7747 42.6059 21.645 42.5743 21.5195C42.5426 21.394 42.4833 21.2753 42.3998 21.1701L38.8541 16.7035V16.7056ZM31.9265 20.6934H28.5072V13.0515C28.4942 12.8001 28.3721 12.5629 28.1665 12.389C27.9608 12.2152 27.6874 12.1182 27.403 12.1182C27.1186 12.1182 26.8452 12.2152 26.6396 12.389C26.4339 12.5629 26.3118 12.8001 26.2988 13.0515V21.6717C26.2988 22.2106 26.7906 22.65 27.4018 22.65H31.9265C32.2197 22.65 32.5009 22.5469 32.7082 22.3635C32.9155 22.18 33.0319 21.9312 33.0319 21.6717C33.0319 21.4122 32.9155 21.1634 32.7082 20.9799C32.5009 20.7965 32.2197 20.6934 31.9265 20.6934ZM18.2096 18.4301L19.8396 14.892L21.3338 18.4301H18.2096ZM24.1184 19.4415L24.1231 19.4084C24.1225 19.1619 24.0162 18.9248 23.8256 18.7451L21.3759 12.9417C21.2732 12.6651 21.0776 12.4229 20.8152 12.2473C20.5528 12.0718 20.2362 11.9713 19.9075 11.9592C19.5765 11.9579 19.2528 12.0459 18.9796 12.2114C18.7064 12.3769 18.4966 12.6121 18.3782 12.8857L14.4882 21.3318C14.4333 21.4507 14.4054 21.5781 14.4061 21.7066C14.4068 21.835 14.4361 21.9621 14.4923 22.0806C14.5486 22.1991 14.6306 22.3066 14.7338 22.397C14.8369 22.4874 14.9592 22.5589 15.0936 22.6075C15.228 22.6561 15.3719 22.6808 15.5171 22.6801C15.6622 22.6795 15.8059 22.6536 15.9397 22.6038C16.0736 22.5541 16.195 22.4815 16.2972 22.3902C16.3993 22.2989 16.4802 22.1907 16.5351 22.0717L17.3079 20.3867H22.1558L22.8561 22.0448C22.9037 22.1687 22.9789 22.2829 23.0773 22.3807C23.1757 22.4784 23.2953 22.5577 23.4289 22.6138C23.5625 22.6699 23.7076 22.7017 23.8553 22.7073C24.0031 22.7129 24.1507 22.6922 24.2892 22.6464C24.4278 22.6006 24.5546 22.5307 24.6621 22.4408C24.7696 22.3508 24.8556 22.2427 24.915 22.1228C24.9744 22.003 25.006 21.8737 25.008 21.7428C25.0099 21.6119 24.9822 21.482 24.9264 21.3608L24.1184 19.4415ZM16.3383 13.0619C16.3383 12.8028 16.2222 12.5543 16.0154 12.3709C15.8086 12.1874 15.528 12.0841 15.2353 12.0836H7.63557C7.3424 12.0836 7.06123 12.1867 6.85393 12.3701C6.64663 12.5536 6.53016 12.8024 6.53016 13.0619C6.53016 13.3213 6.64663 13.5702 6.85393 13.7536C7.06123 13.9371 7.3424 14.0402 7.63557 14.0402H10.3523V21.7836C10.3523 22.0431 10.4687 22.2919 10.676 22.4754C10.8833 22.6588 11.1645 22.7619 11.4577 22.7619C11.7508 22.7619 12.032 22.6588 12.2393 22.4754C12.4466 22.2919 12.5631 22.0431 12.5631 21.7836V14.0402H15.2329C15.5261 14.0402 15.8073 13.9371 16.0146 13.7536C16.2219 13.5702 16.3383 13.3213 16.3383 13.0619Z" fill="white"/>
</svg>
