<svg width="35" height="35" viewBox="0 0 35 35" fill="none" xmlns="http://www.w3.org/2000/svg">
<path d="M15.6252 17.5C15.6252 17.9973 15.8228 18.4742 16.1744 18.8258C16.526 19.1775 17.0029 19.375 17.5002 19.375C17.9975 19.375 18.4744 19.1775 18.826 18.8258C19.1777 18.4742 19.3752 17.9973 19.3752 17.5C19.3752 17.0027 19.1777 16.5258 18.826 16.1742C18.4744 15.8225 17.9975 15.625 17.5002 15.625C17.0029 15.625 16.526 15.8225 16.1744 16.1742C15.8228 16.5258 15.6252 17.0027 15.6252 17.5ZM23.4377 17.5C23.4377 17.9973 23.6353 18.4742 23.9869 18.8258C24.3385 19.1775 24.8154 19.375 25.3127 19.375C25.81 19.375 26.2869 19.1775 26.6385 18.8258C26.9902 18.4742 27.1877 17.9973 27.1877 17.5C27.1877 17.0027 26.9902 16.5258 26.6385 16.1742C26.2869 15.8225 25.81 15.625 25.3127 15.625C24.8154 15.625 24.3385 15.8225 23.9869 16.1742C23.6353 16.5258 23.4377 17.0027 23.4377 17.5ZM7.81272 17.5C7.81272 17.9973 8.01027 18.4742 8.3619 18.8258C8.71353 19.1775 9.19044 19.375 9.68772 19.375C10.185 19.375 10.6619 19.1775 11.0135 18.8258C11.3652 18.4742 11.5627 17.9973 11.5627 17.5C11.5627 17.0027 11.3652 16.5258 11.0135 16.1742C10.6619 15.8225 10.185 15.625 9.68772 15.625C9.19044 15.625 8.71353 15.8225 8.3619 16.1742C8.01027 16.5258 7.81272 17.0027 7.81272 17.5ZM33.6408 10.7188C32.758 8.62109 31.4924 6.73828 29.8791 5.12109C28.2771 3.51327 26.3754 2.23524 24.2815 1.35938C22.133 0.457031 19.8518 0 17.5002 0H17.4221C15.0549 0.0117188 12.7619 0.480469 10.6057 1.40234C8.52974 2.28719 6.64578 3.56749 5.05882 5.17188C3.46116 6.78516 2.20725 8.66016 1.34007 10.75C0.441628 12.9141 -0.0114971 15.2148 0.000221612 17.582C0.0134765 20.2948 0.655268 22.9676 1.87522 25.3906V31.3281C1.87522 31.8047 2.06453 32.2617 2.40151 32.5987C2.73849 32.9357 3.19554 33.125 3.6721 33.125H9.6135C12.0365 34.345 14.7093 34.9867 17.4221 35H17.5041C19.844 35 22.1135 34.5469 24.2502 33.6602C26.3335 32.7947 28.2282 31.5316 29.8283 29.9414C31.4416 28.3438 32.7112 26.4766 33.5979 24.3945C34.5198 22.2383 34.9885 19.9453 35.0002 17.5781C35.0119 15.1992 34.551 12.8906 33.6408 10.7188ZM27.7385 27.8281C25.0002 30.5391 21.3674 32.0312 17.5002 32.0312H17.4338C15.0783 32.0195 12.7385 31.4336 10.6721 30.332L10.344 30.1562H4.84397V24.6562L4.66819 24.3281C3.56663 22.2617 2.98069 19.9219 2.96897 17.5664C2.95335 13.6719 4.44163 10.0156 7.1721 7.26172C9.89866 4.50781 13.5432 2.98438 17.4377 2.96875H17.5041C19.4573 2.96875 21.3518 3.34766 23.1369 4.09766C24.8791 4.82812 26.4416 5.87891 27.7854 7.22266C29.1252 8.5625 30.1799 10.1289 30.9104 11.8711C31.6682 13.6758 32.0471 15.5898 32.0393 17.5664C32.0158 21.457 30.4885 25.1016 27.7385 27.8281Z" fill="#EE81BC"/>
</svg>
