<svg width="34" height="34" viewBox="0 0 34 34" fill="none" xmlns="http://www.w3.org/2000/svg">
<path d="M24.2834 33.3368C24.726 33.3394 25.1648 33.2537 25.574 33.0849C25.9832 32.9161 26.3547 32.6674 26.6667 32.3535L31.1834 27.8368C31.4938 27.5246 31.668 27.1021 31.668 26.6618C31.668 26.2215 31.4938 25.7991 31.1834 25.4868L24.5167 18.8202C24.2044 18.5097 23.782 18.3355 23.3417 18.3355C22.9014 18.3355 22.479 18.5097 22.1667 18.8202L19.5001 21.4702C17.6538 20.9779 15.9439 20.0717 14.5001 18.8202C13.2519 17.374 12.3461 15.6649 11.8501 13.8202L14.5001 11.1535C14.8105 10.8412 14.9847 10.4188 14.9847 9.97849C14.9847 9.53818 14.8105 9.11576 14.5001 8.80349L7.83339 2.13682C7.52112 1.82641 7.0987 1.65217 6.65839 1.65217C6.21808 1.65217 5.79566 1.82641 5.48339 2.13682L0.983389 6.67016C0.669442 6.98223 0.420798 7.3537 0.251966 7.7629C0.0831349 8.17211 -0.00250126 8.61084 5.56112e-05 9.05349C0.15126 15.4573 2.71018 21.569 7.16672 26.1702C11.7679 30.6267 17.8796 33.1856 24.2834 33.3368ZM6.66672 5.68682L10.9834 10.0035L8.83339 12.1535C8.62976 12.3442 8.47727 12.5831 8.38991 12.848C8.30255 13.113 8.28312 13.3957 8.33339 13.6702C8.95634 16.4541 10.2752 19.0346 12.1667 21.1702C14.3007 23.0641 16.8818 24.3833 19.6667 25.0035C19.937 25.06 20.2171 25.0485 20.4818 24.9699C20.7466 24.8914 20.9876 24.7483 21.1834 24.5535L23.3334 22.3535L27.6501 26.6702L24.3167 30.0035C18.7896 29.8612 13.5159 27.6554 9.53339 23.8202C5.68824 19.836 3.47607 14.5553 3.33339 9.02016L6.66672 5.68682ZM30.0001 15.0035H33.3334C33.3766 13.0218 33.0182 11.0519 32.2796 9.2125C31.5411 7.37308 30.4378 5.70223 29.0362 4.30065C27.6346 2.89907 25.9638 1.79577 24.1244 1.05725C22.285 0.318725 20.3151 -0.0397278 18.3334 0.00349105V3.33682C19.8799 3.28333 21.4209 3.54851 22.8605 4.11588C24.3002 4.68325 25.6078 5.54069 26.702 6.63489C27.7962 7.72909 28.6536 9.03667 29.221 10.4763C29.7884 11.916 30.0536 13.457 30.0001 15.0035Z" fill="#3A77D3"/>
</svg>
